<svg xmlns="http://www.w3.org/2000/svg" xmlns:xlink="http://www.w3.org/1999/xlink" width="535" zoomAndPan="magnify" viewBox="0 0 401.25 30.000001" height="40" preserveAspectRatio="xMidYMid meet" version="1.0"><defs><g/><clipPath id="bb904785d8"><path d="M 6.109375 1 L 28 1 L 28 27 L 6.109375 27 Z M 6.109375 1 " clip-rule="nonzero"/></clipPath></defs><g clip-path="url(#bb904785d8)"><g fill="#000000" fill-opacity="1"><g transform="translate(6.108864, 26.140262)"><g><path d="M 7.90625 -19.6875 L 0.140625 -19.6875 L 0.140625 -24.265625 L 21.28125 -24.265625 L 21.28125 -19.6875 L 13.515625 -19.6875 L 13.515625 0 L 7.90625 0 Z M 7.90625 -19.6875 "/></g></g></g></g><g fill="#000000" fill-opacity="1"><g transform="translate(27.53234, 26.140262)"><g><path d="M 10.015625 -18.9375 C 12.910156 -18.9375 15.128906 -18.25 16.671875 -16.875 C 18.222656 -15.5 19 -13.421875 19 -10.640625 L 19 0 L 13.9375 0 L 13.9375 -2.328125 C 12.914062 -0.585938 11.019531 0.28125 8.25 0.28125 C 6.820312 0.28125 5.582031 0.0390625 4.53125 -0.4375 C 3.476562 -0.925781 2.671875 -1.597656 2.109375 -2.453125 C 1.554688 -3.316406 1.28125 -4.289062 1.28125 -5.375 C 1.28125 -7.101562 1.929688 -8.460938 3.234375 -9.453125 C 4.546875 -10.453125 6.566406 -10.953125 9.296875 -10.953125 L 13.59375 -10.953125 C 13.59375 -12.128906 13.234375 -13.035156 12.515625 -13.671875 C 11.796875 -14.304688 10.722656 -14.625 9.296875 -14.625 C 8.296875 -14.625 7.316406 -14.46875 6.359375 -14.15625 C 5.398438 -13.851562 4.585938 -13.429688 3.921875 -12.890625 L 1.96875 -16.671875 C 2.988281 -17.390625 4.207031 -17.945312 5.625 -18.34375 C 7.050781 -18.738281 8.515625 -18.9375 10.015625 -18.9375 Z M 9.609375 -3.359375 C 10.523438 -3.359375 11.34375 -3.570312 12.0625 -4 C 12.78125 -4.425781 13.289062 -5.054688 13.59375 -5.890625 L 13.59375 -7.796875 L 9.875 -7.796875 C 7.65625 -7.796875 6.546875 -7.066406 6.546875 -5.609375 C 6.546875 -4.921875 6.816406 -4.375 7.359375 -3.96875 C 7.910156 -3.5625 8.660156 -3.359375 9.609375 -3.359375 Z M 9.609375 -3.359375 "/></g></g></g><g fill="#000000" fill-opacity="1"><g transform="translate(48.921145, 26.140262)"><g><path d="M 2.5 -18.65625 L 7.90625 -18.65625 L 7.90625 0 L 2.5 0 Z M 5.203125 -21.25 C 4.210938 -21.25 3.40625 -21.535156 2.78125 -22.109375 C 2.15625 -22.691406 1.84375 -23.410156 1.84375 -24.265625 C 1.84375 -25.117188 2.15625 -25.832031 2.78125 -26.40625 C 3.40625 -26.988281 4.210938 -27.28125 5.203125 -27.28125 C 6.203125 -27.28125 7.015625 -27.003906 7.640625 -26.453125 C 8.265625 -25.898438 8.578125 -25.207031 8.578125 -24.375 C 8.578125 -23.46875 8.265625 -22.71875 7.640625 -22.125 C 7.015625 -21.539062 6.203125 -21.25 5.203125 -21.25 Z M 5.203125 -21.25 "/></g></g></g><g fill="#000000" fill-opacity="1"><g transform="translate(59.355547, 26.140262)"><g><path d="M 2.5 -25.71875 L 7.90625 -25.71875 L 7.90625 0 L 2.5 0 Z M 2.5 -25.71875 "/></g></g></g><g fill="#000000" fill-opacity="1"><g transform="translate(69.789949, 26.140262)"><g><path d="M 39.5625 -24.265625 L 31.625 0 L 25.59375 0 L 20.25 -16.4375 L 14.734375 0 L 8.734375 0 L 0.765625 -24.265625 L 6.59375 -24.265625 L 12.0625 -7.21875 L 17.78125 -24.265625 L 22.984375 -24.265625 L 28.53125 -7.078125 L 34.1875 -24.265625 Z M 39.5625 -24.265625 "/></g></g></g><g fill="#000000" fill-opacity="1"><g transform="translate(110.106293, 26.140262)"><g><path d="M 2.5 -18.65625 L 7.90625 -18.65625 L 7.90625 0 L 2.5 0 Z M 5.203125 -21.25 C 4.210938 -21.25 3.40625 -21.535156 2.78125 -22.109375 C 2.15625 -22.691406 1.84375 -23.410156 1.84375 -24.265625 C 1.84375 -25.117188 2.15625 -25.832031 2.78125 -26.40625 C 3.40625 -26.988281 4.210938 -27.28125 5.203125 -27.28125 C 6.203125 -27.28125 7.015625 -27.003906 7.640625 -26.453125 C 8.265625 -25.898438 8.578125 -25.207031 8.578125 -24.375 C 8.578125 -23.46875 8.265625 -22.71875 7.640625 -22.125 C 7.015625 -21.539062 6.203125 -21.25 5.203125 -21.25 Z M 5.203125 -21.25 "/></g></g></g><g fill="#000000" fill-opacity="1"><g transform="translate(120.540695, 26.140262)"><g><path d="M 13.828125 -18.9375 C 16.140625 -18.9375 18.003906 -18.238281 19.421875 -16.84375 C 20.847656 -15.457031 21.5625 -13.398438 21.5625 -10.671875 L 21.5625 0 L 16.15625 0 L 16.15625 -9.84375 C 16.15625 -11.320312 15.832031 -12.425781 15.1875 -13.15625 C 14.539062 -13.882812 13.601562 -14.25 12.375 -14.25 C 11.007812 -14.25 9.921875 -13.828125 9.109375 -12.984375 C 8.304688 -12.140625 7.90625 -10.882812 7.90625 -9.21875 L 7.90625 0 L 2.5 0 L 2.5 -18.65625 L 7.65625 -18.65625 L 7.65625 -16.46875 C 8.375 -17.25 9.265625 -17.851562 10.328125 -18.28125 C 11.390625 -18.71875 12.554688 -18.9375 13.828125 -18.9375 Z M 13.828125 -18.9375 "/></g></g></g><g fill="#000000" fill-opacity="1"><g transform="translate(144.494779, 26.140262)"><g><path d="M 21.5 -25.71875 L 21.5 0 L 16.328125 0 L 16.328125 -2.15625 C 14.984375 -0.53125 13.039062 0.28125 10.5 0.28125 C 8.75 0.28125 7.160156 -0.109375 5.734375 -0.890625 C 4.316406 -1.679688 3.203125 -2.804688 2.390625 -4.265625 C 1.578125 -5.722656 1.171875 -7.410156 1.171875 -9.328125 C 1.171875 -11.242188 1.578125 -12.929688 2.390625 -14.390625 C 3.203125 -15.847656 4.316406 -16.96875 5.734375 -17.75 C 7.160156 -18.539062 8.75 -18.9375 10.5 -18.9375 C 12.882812 -18.9375 14.75 -18.179688 16.09375 -16.671875 L 16.09375 -25.71875 Z M 11.4375 -4.15625 C 12.800781 -4.15625 13.929688 -4.625 14.828125 -5.5625 C 15.734375 -6.5 16.1875 -7.753906 16.1875 -9.328125 C 16.1875 -10.898438 15.734375 -12.15625 14.828125 -13.09375 C 13.929688 -14.03125 12.800781 -14.5 11.4375 -14.5 C 10.050781 -14.5 8.90625 -14.03125 8 -13.09375 C 7.101562 -12.15625 6.65625 -10.898438 6.65625 -9.328125 C 6.65625 -7.753906 7.101562 -6.5 8 -5.5625 C 8.90625 -4.625 10.050781 -4.15625 11.4375 -4.15625 Z M 11.4375 -4.15625 "/></g></g></g><g fill="#000000" fill-opacity="1"><g transform="translate(168.483534, 26.140262)"><g/></g></g><g fill="#000000" fill-opacity="1"><g transform="translate(178.293971, 26.140262)"><g><path d="M 7.90625 -19.6875 L 0.140625 -19.6875 L 0.140625 -24.265625 L 21.28125 -24.265625 L 21.28125 -19.6875 L 13.515625 -19.6875 L 13.515625 0 L 7.90625 0 Z M 7.90625 -19.6875 "/></g></g></g><g fill="#000000" fill-opacity="1"><g transform="translate(199.717447, 26.140262)"><g><path d="M 20.765625 -9.25 C 20.765625 -9.1875 20.734375 -8.703125 20.671875 -7.796875 L 6.546875 -7.796875 C 6.804688 -6.640625 7.410156 -5.726562 8.359375 -5.0625 C 9.304688 -4.394531 10.484375 -4.0625 11.890625 -4.0625 C 12.859375 -4.0625 13.71875 -4.203125 14.46875 -4.484375 C 15.226562 -4.773438 15.929688 -5.234375 16.578125 -5.859375 L 19.453125 -2.734375 C 17.691406 -0.722656 15.125 0.28125 11.75 0.28125 C 9.644531 0.28125 7.785156 -0.128906 6.171875 -0.953125 C 4.554688 -1.773438 3.304688 -2.910156 2.421875 -4.359375 C 1.546875 -5.816406 1.109375 -7.472656 1.109375 -9.328125 C 1.109375 -11.148438 1.539062 -12.796875 2.40625 -14.265625 C 3.269531 -15.734375 4.457031 -16.878906 5.96875 -17.703125 C 7.488281 -18.523438 9.1875 -18.9375 11.0625 -18.9375 C 12.882812 -18.9375 14.535156 -18.539062 16.015625 -17.75 C 17.492188 -16.96875 18.65625 -15.84375 19.5 -14.375 C 20.34375 -12.90625 20.765625 -11.195312 20.765625 -9.25 Z M 11.09375 -14.84375 C 9.863281 -14.84375 8.832031 -14.492188 8 -13.796875 C 7.175781 -13.109375 6.671875 -12.160156 6.484375 -10.953125 L 15.671875 -10.953125 C 15.484375 -12.128906 14.972656 -13.070312 14.140625 -13.78125 C 13.304688 -14.488281 12.289062 -14.84375 11.09375 -14.84375 Z M 11.09375 -14.84375 "/></g></g></g><g fill="#000000" fill-opacity="1"><g transform="translate(221.59158, 26.140262)"><g><path d="M 11.515625 0.28125 C 9.523438 0.28125 7.738281 -0.128906 6.15625 -0.953125 C 4.570312 -1.773438 3.332031 -2.910156 2.4375 -4.359375 C 1.550781 -5.816406 1.109375 -7.472656 1.109375 -9.328125 C 1.109375 -11.171875 1.550781 -12.820312 2.4375 -14.28125 C 3.332031 -15.738281 4.570312 -16.878906 6.15625 -17.703125 C 7.738281 -18.523438 9.523438 -18.9375 11.515625 -18.9375 C 13.472656 -18.9375 15.1875 -18.523438 16.65625 -17.703125 C 18.125 -16.878906 19.191406 -15.707031 19.859375 -14.1875 L 15.671875 -11.921875 C 14.703125 -13.640625 13.300781 -14.5 11.46875 -14.5 C 10.0625 -14.5 8.894531 -14.035156 7.96875 -13.109375 C 7.050781 -12.179688 6.59375 -10.921875 6.59375 -9.328125 C 6.59375 -7.734375 7.050781 -6.472656 7.96875 -5.546875 C 8.894531 -4.617188 10.0625 -4.15625 11.46875 -4.15625 C 13.320312 -4.15625 14.722656 -5.007812 15.671875 -6.71875 L 19.859375 -4.4375 C 19.191406 -2.957031 18.125 -1.800781 16.65625 -0.96875 C 15.1875 -0.132812 13.472656 0.28125 11.515625 0.28125 Z M 11.515625 0.28125 "/></g></g></g><g fill="#000000" fill-opacity="1"><g transform="translate(242.07907, 26.140262)"><g><path d="M 13.828125 -18.9375 C 16.140625 -18.9375 18.003906 -18.238281 19.421875 -16.84375 C 20.847656 -15.457031 21.5625 -13.398438 21.5625 -10.671875 L 21.5625 0 L 16.15625 0 L 16.15625 -9.84375 C 16.15625 -11.320312 15.832031 -12.425781 15.1875 -13.15625 C 14.539062 -13.882812 13.601562 -14.25 12.375 -14.25 C 11.007812 -14.25 9.921875 -13.828125 9.109375 -12.984375 C 8.304688 -12.140625 7.90625 -10.882812 7.90625 -9.21875 L 7.90625 0 L 2.5 0 L 2.5 -25.71875 L 7.90625 -25.71875 L 7.90625 -16.71875 C 8.625 -17.425781 9.488281 -17.972656 10.5 -18.359375 C 11.519531 -18.742188 12.628906 -18.9375 13.828125 -18.9375 Z M 13.828125 -18.9375 "/></g></g></g><g fill="#000000" fill-opacity="1"><g transform="translate(266.033154, 26.140262)"><g><path d="M 39.5625 -24.265625 L 31.625 0 L 25.59375 0 L 20.25 -16.4375 L 14.734375 0 L 8.734375 0 L 0.765625 -24.265625 L 6.59375 -24.265625 L 12.0625 -7.21875 L 17.78125 -24.265625 L 22.984375 -24.265625 L 28.53125 -7.078125 L 34.1875 -24.265625 Z M 39.5625 -24.265625 "/></g></g></g><g fill="#000000" fill-opacity="1"><g transform="translate(306.349498, 26.140262)"><g><path d="M 11.375 0.28125 C 9.40625 0.28125 7.640625 -0.128906 6.078125 -0.953125 C 4.523438 -1.773438 3.304688 -2.910156 2.421875 -4.359375 C 1.546875 -5.816406 1.109375 -7.472656 1.109375 -9.328125 C 1.109375 -11.171875 1.546875 -12.820312 2.421875 -14.28125 C 3.304688 -15.738281 4.523438 -16.878906 6.078125 -17.703125 C 7.640625 -18.523438 9.40625 -18.9375 11.375 -18.9375 C 13.332031 -18.9375 15.085938 -18.523438 16.640625 -17.703125 C 18.191406 -16.878906 19.40625 -15.738281 20.28125 -14.28125 C 21.15625 -12.820312 21.59375 -11.171875 21.59375 -9.328125 C 21.59375 -7.472656 21.15625 -5.816406 20.28125 -4.359375 C 19.40625 -2.910156 18.191406 -1.773438 16.640625 -0.953125 C 15.085938 -0.128906 13.332031 0.28125 11.375 0.28125 Z M 11.375 -4.15625 C 12.757812 -4.15625 13.894531 -4.625 14.78125 -5.5625 C 15.675781 -6.5 16.125 -7.753906 16.125 -9.328125 C 16.125 -10.898438 15.675781 -12.15625 14.78125 -13.09375 C 13.894531 -14.03125 12.757812 -14.5 11.375 -14.5 C 9.988281 -14.5 8.84375 -14.03125 7.9375 -13.09375 C 7.039062 -12.15625 6.59375 -10.898438 6.59375 -9.328125 C 6.59375 -7.753906 7.039062 -6.5 7.9375 -5.5625 C 8.84375 -4.625 9.988281 -4.15625 11.375 -4.15625 Z M 11.375 -4.15625 "/></g></g></g><g fill="#000000" fill-opacity="1"><g transform="translate(329.055602, 26.140262)"><g><path d="M 7.65625 -16.1875 C 8.3125 -17.09375 9.1875 -17.773438 10.28125 -18.234375 C 11.375 -18.703125 12.640625 -18.9375 14.078125 -18.9375 L 14.078125 -13.9375 C 13.472656 -13.976562 13.066406 -14 12.859375 -14 C 11.316406 -14 10.101562 -13.566406 9.21875 -12.703125 C 8.34375 -11.835938 7.90625 -10.539062 7.90625 -8.8125 L 7.90625 0 L 2.5 0 L 2.5 -18.65625 L 7.65625 -18.65625 Z M 7.65625 -16.1875 "/></g></g></g><g fill="#000000" fill-opacity="1"><g transform="translate(343.996573, 26.140262)"><g><path d="M 10.5 -7.3125 L 7.90625 -4.75 L 7.90625 0 L 2.5 0 L 2.5 -25.71875 L 7.90625 -25.71875 L 7.90625 -11.171875 L 15.8125 -18.65625 L 22.265625 -18.65625 L 14.5 -10.75 L 22.953125 0 L 16.40625 0 Z M 10.5 -7.3125 "/></g></g></g><g fill="#000000" fill-opacity="1"><g transform="translate(366.876009, 26.140262)"><g><path d="M 8.765625 0.28125 C 7.222656 0.28125 5.710938 0.09375 4.234375 -0.28125 C 2.753906 -0.664062 1.570312 -1.148438 0.6875 -1.734375 L 2.5 -5.609375 C 3.332031 -5.078125 4.335938 -4.644531 5.515625 -4.3125 C 6.691406 -3.976562 7.847656 -3.8125 8.984375 -3.8125 C 11.265625 -3.8125 12.40625 -4.378906 12.40625 -5.515625 C 12.40625 -6.046875 12.09375 -6.425781 11.46875 -6.65625 C 10.851562 -6.882812 9.894531 -7.082031 8.59375 -7.25 C 7.070312 -7.476562 5.8125 -7.742188 4.8125 -8.046875 C 3.820312 -8.347656 2.960938 -8.878906 2.234375 -9.640625 C 1.503906 -10.398438 1.140625 -11.484375 1.140625 -12.890625 C 1.140625 -14.078125 1.476562 -15.125 2.15625 -16.03125 C 2.84375 -16.945312 3.835938 -17.660156 5.140625 -18.171875 C 6.453125 -18.679688 8 -18.9375 9.78125 -18.9375 C 11.09375 -18.9375 12.398438 -18.789062 13.703125 -18.5 C 15.015625 -18.207031 16.097656 -17.804688 16.953125 -17.296875 L 15.15625 -13.453125 C 13.507812 -14.378906 11.71875 -14.84375 9.78125 -14.84375 C 8.625 -14.84375 7.753906 -14.679688 7.171875 -14.359375 C 6.597656 -14.035156 6.3125 -13.617188 6.3125 -13.109375 C 6.3125 -12.523438 6.625 -12.117188 7.25 -11.890625 C 7.875 -11.660156 8.867188 -11.441406 10.234375 -11.234375 C 11.753906 -10.984375 13 -10.710938 13.96875 -10.421875 C 14.9375 -10.128906 15.78125 -9.601562 16.5 -8.84375 C 17.21875 -8.082031 17.578125 -7.019531 17.578125 -5.65625 C 17.578125 -4.5 17.226562 -3.46875 16.53125 -2.5625 C 15.84375 -1.664062 14.832031 -0.96875 13.5 -0.46875 C 12.175781 0.03125 10.597656 0.28125 8.765625 0.28125 Z M 8.765625 0.28125 "/></g></g></g><g fill="#000000" fill-opacity="1"><g transform="translate(385.283574, 26.140262)"><g><path d="M 4.546875 0.28125 C 3.597656 0.28125 2.796875 -0.0390625 2.140625 -0.6875 C 1.492188 -1.34375 1.171875 -2.15625 1.171875 -3.125 C 1.171875 -4.113281 1.492188 -4.914062 2.140625 -5.53125 C 2.796875 -6.144531 3.597656 -6.453125 4.546875 -6.453125 C 5.492188 -6.453125 6.289062 -6.144531 6.9375 -5.53125 C 7.582031 -4.914062 7.90625 -4.113281 7.90625 -3.125 C 7.90625 -2.15625 7.582031 -1.34375 6.9375 -0.6875 C 6.289062 -0.0390625 5.492188 0.28125 4.546875 0.28125 Z M 4.546875 0.28125 "/></g></g></g></svg>